<svg width="64" height="64" viewBox="0 0 64 64" fill="none" xmlns="http://www.w3.org/2000/svg">
<path fill-rule="evenodd" clip-rule="evenodd" d="M43.875 30.125V60.25H42H40.125V38.125V16H32H23.875V38.125V60.25H22H20.125V46.125V32H12H3.875V46.125V60.25H1.9375H0V62.125V64H32H64V62.125V60.25H62.0625H60.125V30.125V0H52H43.875V30.125ZM54.6642 8.2695C56.1208 9.449 57.381 10.4757 57.4646 10.5511C57.5809 10.6559 57.3485 11.0204 56.4809 12.0941C55.856 12.8674 55.3027 13.5 55.2513 13.5C55.1998 13.5 54.869 13.2703 54.5164 12.9894L53.875 12.4788V33.3019V54.125H52H50.125V33.3019V12.4788L49.4836 12.9894C49.131 13.2703 48.7982 13.5 48.7444 13.5C48.5985 13.5 46.3696 10.7137 46.4505 10.6324C46.5821 10.5 51.9375 6.1385 51.9767 6.13175C51.9984 6.128 53.2077 7.09 54.6642 8.2695ZM34.8641 24.4268C36.6254 25.8571 37.5845 26.7151 37.5191 26.8018C36.8975 27.6255 35.3182 29.5 35.246 29.5C35.1944 29.5 34.8789 29.2741 34.5449 28.9981L33.9375 28.4963L33.9056 41.3106L33.8739 54.125H31.9994H30.125V41.3019V28.4788L29.4836 28.9894C29.131 29.2702 28.7995 29.5 28.7471 29.5C28.6489 29.5 26.4942 26.884 26.4579 26.7206C26.4331 26.6089 31.9025 22.1295 32.0221 22.1635C32.0686 22.1766 33.3475 23.1951 34.8641 24.4268ZM14.8698 40.4234C16.6794 41.8908 17.591 42.7071 17.5219 42.7984C16.9535 43.5499 15.3228 45.4998 15.2636 45.4986C15.2218 45.498 14.9062 45.2745 14.5625 45.0021L13.9375 44.5069L13.9047 49.316L13.8721 54.125H11.9985H10.125V49.3019V44.4787L9.48363 44.9894C9.131 45.2703 8.80175 45.5 8.75212 45.5C8.66475 45.5 6.53525 42.9065 6.46987 42.7206C6.43162 42.612 11.8971 38.1283 12.0249 38.1635C12.073 38.1766 13.3531 39.1936 14.8698 40.4234Z" fill="black"/>
<path fill-rule="evenodd" clip-rule="evenodd" d="M43.8754 30.125V60.25V64H64.0004V62.125V60.25H62.0629H60.1254V30.125V0H52.0004H43.8754V30.125ZM57.465 10.5511C57.3814 10.4757 56.1211 9.449 54.6646 8.2695C53.2081 7.09 51.9988 6.128 51.9771 6.13175C51.9379 6.1385 46.5825 10.5 46.4509 10.6324C46.37 10.7137 48.5989 13.5 48.7448 13.5C48.7986 13.5 49.1314 13.2703 49.484 12.9894L50.1254 12.4788V33.3019V54.125H52.0004H53.8754V33.3019V12.4788L54.5168 12.9894C54.8694 13.2703 55.2001 13.5 55.2516 13.5C55.3031 13.5 55.8564 12.8674 56.4813 12.0941C57.3489 11.0204 57.5813 10.6559 57.465 10.5511Z" fill="#3A8043"/>
<path d="M43.8754 64V60.25H40.1455V64H43.8754Z" fill="#3A8043"/>
</svg>
