<svg width="65" height="57" viewBox="0 0 65 57" fill="none" xmlns="http://www.w3.org/2000/svg">
<path fill-rule="evenodd" clip-rule="evenodd" d="M20.7521 4.25V8.5H10.376H0L0.03225 15.3253L0.064625 22.1505L13.0021 27.075C20.1178 29.7834 25.9538 31.9995 25.9709 31.9996C25.988 31.9999 26.0021 30.7062 26.0021 29.125V26.25H32.0021H38.0021V29.1334C38.0021 31.8239 38.0168 32.012 38.2209 31.9441C38.3411 31.9041 44.1771 29.686 51.1896 27.0151L63.9397 22.1589L63.972 15.3294L64.0043 8.5H53.6283H43.2521V4.25V0H32.0021H20.7521V4.25ZM39.5021 6.125V8.5H32.0021H24.5021V6.125V3.75H32.0021H39.5021V6.125ZM0.002125 41.3144V56.5H32.0021H64.0022V41.3109V26.1216L63.5959 26.2899C63.3724 26.3824 57.5225 28.614 50.5959 31.2489L38.0021 36.0396V38.9291V41.8186L35.0065 43.2119L32.0109 44.605L29.0065 43.2108L26.0021 41.8165V38.9253V36.034L13.5959 31.3134C6.77238 28.717 0.922375 26.4882 0.595875 26.3606L0.002125 26.1286V41.3144ZM29.7546 34.7188L29.7571 39.4375L30.8779 39.9591L31.9986 40.4806L33.1254 39.9603L34.2521 39.4398V34.7199V30H32.0021H29.7521L29.7546 34.7188Z" fill="black"/>
</svg>
