<svg width="47" height="64" viewBox="0 0 47 64" fill="none" xmlns="http://www.w3.org/2000/svg">
<path fill-rule="evenodd" clip-rule="evenodd" d="M0 10.8125V21.625L2.46875 21.6245L4.9375 21.6241L5.37025 20.7808C6.55112 18.4796 9.16613 17.118 11.6793 17.4956C13.5888 17.7825 15.3935 19.0915 16.2342 20.7995L16.6406 21.625H19.1329H21.625V17.4556V13.2864L22.8546 13.2186C23.7609 13.1686 24.2211 13.081 24.6045 12.8855C25.943 12.2026 26.2536 10.3182 25.2052 9.2415C24.6219 8.64225 24.1636 8.5 22.8165 8.5H21.625V4.25V0H10.8125H0V10.8125ZM12.625 5.875C12.625 7.25 12.6593 8.375 12.701 8.375C12.7429 8.375 13.1275 8.09612 13.556 7.75525L14.3349 7.13538L15.4799 8.551C16.1098 9.32962 16.625 9.995 16.625 10.0296C16.625 10.1614 10.9683 14.6875 10.8036 14.6875C10.6147 14.6875 5 10.1754 5 10.0235C5 9.97225 5.51037 9.29988 6.13425 8.52938L7.2685 7.12862L8.0405 7.75338L8.8125 8.37825L8.84637 5.87663L8.88013 3.375H10.7526H12.625V5.875ZM25.375 19.4145V21.954L26.0809 22.2466C27.0905 22.665 28.3768 23.9132 28.9225 25.004C29.8156 26.7892 29.8215 28.6734 28.9398 30.4575C28.3413 31.6686 27.4224 32.592 26.2673 33.1434L25.3891 33.5625L25.382 36.0938L25.375 38.625H29.625H33.875V39.8044C33.875 41.1166 33.9839 41.5215 34.4767 42.0424C35.5201 43.1452 37.2746 43.0279 38.1167 41.7989C38.4517 41.31 38.6065 40.5709 38.6175 39.4062L38.625 38.625H42.8125H47V27.75V16.875H36.1875H25.375V19.4145ZM9.798 38.3571C8.80387 38.8221 8.375 39.7934 8.375 41.5795V42.375H4.1875H0V53.1875V64H10.8125H21.625V61.5171V59.0344L20.8438 58.6456C17.7861 57.1245 16.5653 53.5897 18.0301 50.5C18.5389 49.427 19.7814 48.1847 20.8438 47.6871L21.625 47.3211V44.848V42.375H17.375H13.125L13.1222 41.1562C13.1201 40.2303 13.0625 39.8119 12.8821 39.4145C12.3928 38.3368 10.9208 37.832 9.798 38.3571ZM25.375 46.625V50.875H24.12C23.1076 50.875 22.7694 50.9237 22.3701 51.1275C21.0565 51.7976 20.7563 53.6919 21.7948 54.7585C22.3781 55.3577 22.8364 55.5 24.1835 55.5H25.375V59.75V64H36.1875H47V53.1875V42.375H44.5171H42.0344L41.6198 43.2188C40.7878 44.9116 39.0159 46.1976 37.1032 46.4964C34.5754 46.8914 31.9344 45.521 30.7585 43.2043L30.3376 42.375H27.8563H25.375V46.625Z" fill="black"/>
</svg>
