<svg width="47" height="64" viewBox="0 0 47 64" fill="none" xmlns="http://www.w3.org/2000/svg">
<path fill-rule="evenodd" clip-rule="evenodd" d="M25.375 21.954V19.4145V16.875H36.1875H47V27.75V38.625H42.8125H38.625L38.6175 39.4062C38.6065 40.5709 38.4517 41.31 38.1167 41.7989C37.2746 43.0279 35.5201 43.1452 34.4767 42.0424C33.9839 41.5215 33.875 41.1166 33.875 39.8044V38.625H29.625H25.375L25.382 36.0938L25.3891 33.5625L26.2673 33.1434C27.4224 32.592 28.3413 31.6686 28.9398 30.4575C29.8215 28.6734 29.8156 26.7892 28.9225 25.004C28.3768 23.9132 27.0905 22.665 26.0809 22.2466L25.375 21.954ZM8.375 41.5795C8.375 39.7934 8.80387 38.8221 9.798 38.3571C10.9208 37.832 12.3928 38.3368 12.8821 39.4145C13.0625 39.8119 13.1201 40.2303 13.1222 41.1562L13.125 42.375H17.375H21.625V44.848V47.3211L20.8438 47.6871C19.7814 48.1847 18.5389 49.427 18.0301 50.5C16.5653 53.5897 17.7861 57.1245 20.8438 58.6456L21.625 59.0344V61.5171V64H10.8125H0V53.1875V42.375H4.1875H8.375V41.5795ZM25.375 50.875V46.625V42.375H27.8563H30.3376L30.7585 43.2043C31.9344 45.521 34.5754 46.8914 37.1032 46.4964C39.0159 46.1976 40.7878 44.9116 41.6198 43.2188L42.0344 42.375H44.5171H47V53.1875V64H36.1875H25.375V59.75V55.5H24.1835C22.8364 55.5 22.3781 55.3577 21.7948 54.7585C20.7563 53.6919 21.0565 51.7976 22.3701 51.1275C22.7694 50.9237 23.1076 50.875 24.12 50.875H25.375Z" fill="black"/>
<path fill-rule="evenodd" clip-rule="evenodd" d="M0 10.8125V21.625L2.46875 21.6245L4.9375 21.6241L5.37025 20.7808C6.55112 18.4796 9.16613 17.118 11.6793 17.4956C13.5888 17.7825 15.3935 19.0915 16.2342 20.7995L16.6406 21.625H19.1329H21.625V17.4556V13.2864L22.8546 13.2186C23.7609 13.1686 24.2211 13.081 24.6045 12.8855C25.943 12.2026 26.2536 10.3182 25.2052 9.2415C24.6219 8.64225 24.1636 8.5 22.8165 8.5H21.625V4.25V0H10.8125H0V10.8125ZM12.701 8.375C12.6593 8.375 12.625 7.25 12.625 5.875V3.375H10.7526H8.88013L8.84637 5.87663L8.8125 8.37825L8.0405 7.75338L7.2685 7.12862L6.13425 8.52938C5.51037 9.29988 5 9.97225 5 10.0235C5 10.1754 10.6147 14.6875 10.8036 14.6875C10.9683 14.6875 16.625 10.1614 16.625 10.0296C16.625 9.995 16.1098 9.32962 15.4799 8.551L14.3349 7.13538L13.556 7.75525C13.1275 8.09612 12.7429 8.375 12.701 8.375Z" fill="#3A8043"/>
</svg>
