<svg width="125" height="76" viewBox="0 0 125 76" fill="none" xmlns="http://www.w3.org/2000/svg">
<path d="M122 38.0004C122 18.6703 106.33 3 87.0001 3C67.6701 3 52 18.6703 52 38.0004C52 57.3297 67.6701 73 87.0001 73C106.33 73 122 57.3297 122 38.0004Z" stroke="#3A8043" stroke-width="6" stroke-miterlimit="10"/>
<path d="M0 50C5.13961 50 5.13961 57 10.2797 57C15.4193 57 15.4193 50 20.5592 50C25.6971 50 25.6971 57 30.8358 57C35.975 57 35.975 50 41.115 50C46.256 50 46.256 57 51.3978 57C56.537 57 56.537 50 61.6772 50C66.8199 50 66.8199 57 71.9636 57C77.1064 57 77.1063 50 82.25 50" stroke="#323431" stroke-width="1.33333" stroke-miterlimit="10"/>
</svg>
