<svg width="214" height="68" viewBox="0 0 214 68" fill="none" xmlns="http://www.w3.org/2000/svg">
<path d="M120.283 1.64152C120.283 0.734854 119.548 0.000179291 118.642 0.000179291C117.735 0.000179291 117 0.734854 117 1.64152C117 2.54819 117.735 3.28418 118.642 3.28418C119.548 3.28418 120.283 2.54819 120.283 1.64152Z" fill="#3A8043"/>
<path d="M143.567 1.64152C143.567 0.734854 142.831 0.000179291 141.924 0.000179291C141.018 0.000179291 140.283 0.734854 140.283 1.64152C140.283 2.54819 141.018 3.28418 141.924 3.28418C142.831 3.28418 143.567 2.54819 143.567 1.64152Z" fill="#3A8043"/>
<path d="M166.849 1.64152C166.849 0.734854 166.114 0.000179291 165.208 0.000179291C164.301 0.000179291 163.566 0.734854 163.566 1.64152C163.566 2.54819 164.301 3.28418 165.208 3.28418C166.114 3.28418 166.849 2.54819 166.849 1.64152Z" fill="#3A8043"/>
<path d="M190.134 1.64152C190.134 0.734854 189.399 0.000179291 188.491 0.000179291C187.586 0.000179291 186.85 0.734854 186.85 1.64152C186.85 2.54819 187.586 3.28418 188.491 3.28418C189.399 3.28418 190.134 2.54819 190.134 1.64152Z" fill="#3A8043"/>
<path d="M213.417 1.64152C213.417 0.734854 212.682 0.000179291 211.775 0.000179291C210.867 0.000179291 210.133 0.734854 210.133 1.64152C210.133 2.54819 210.867 3.28418 211.775 3.28418C212.682 3.28418 213.417 2.54819 213.417 1.64152Z" fill="#3A8043"/>
<path d="M120.283 22.9268C120.283 22.0201 119.548 21.2841 118.642 21.2841C117.735 21.2841 117 22.0201 117 22.9268C117 23.8348 117.735 24.5681 118.642 24.5681C119.548 24.5681 120.283 23.8348 120.283 22.9268Z" fill="#3A8043"/>
<path d="M143.567 22.9268C143.567 22.0201 142.831 21.2841 141.924 21.2841C141.018 21.2841 140.283 22.0201 140.283 22.9268C140.283 23.8348 141.018 24.5681 141.924 24.5681C142.831 24.5681 143.567 23.8348 143.567 22.9268Z" fill="#3A8043"/>
<path d="M166.849 22.9268C166.849 22.0201 166.114 21.2841 165.208 21.2841C164.301 21.2841 163.566 22.0201 163.566 22.9268C163.566 23.8348 164.301 24.5681 165.208 24.5681C166.114 24.5681 166.849 23.8348 166.849 22.9268Z" fill="#3A8043"/>
<path d="M190.134 22.9268C190.134 22.0201 189.399 21.2841 188.491 21.2841C187.586 21.2841 186.85 22.0201 186.85 22.9268C186.85 23.8348 187.586 24.5681 188.491 24.5681C189.399 24.5681 190.134 23.8348 190.134 22.9268Z" fill="#3A8043"/>
<path d="M213.417 22.9268C213.417 22.0201 212.682 21.2841 211.775 21.2841C210.867 21.2841 210.133 22.0201 210.133 22.9268C210.133 23.8348 210.867 24.5681 211.775 24.5681C212.682 24.5681 213.417 23.8348 213.417 22.9268Z" fill="#3A8043"/>
<path d="M120.283 44.2108C120.283 43.3028 119.548 42.5682 118.642 42.5682C117.735 42.5682 117 43.3028 117 44.2108C117 45.1162 117.735 45.8508 118.642 45.8508C119.548 45.8508 120.283 45.1162 120.283 44.2108Z" fill="#3A8043"/>
<path d="M143.567 44.2108C143.567 43.3028 142.831 42.5682 141.924 42.5682C141.018 42.5682 140.283 43.3028 140.283 44.2108C140.283 45.1162 141.018 45.8508 141.924 45.8508C142.831 45.8508 143.567 45.1162 143.567 44.2108Z" fill="#3A8043"/>
<path d="M166.849 44.2108C166.849 43.3028 166.114 42.5682 165.208 42.5682C164.301 42.5682 163.566 43.3028 163.566 44.2108C163.566 45.1162 164.301 45.8508 165.208 45.8508C166.114 45.8508 166.849 45.1162 166.849 44.2108Z" fill="#3A8043"/>
<path d="M190.134 44.2108C190.134 43.3028 189.399 42.5682 188.491 42.5682C187.586 42.5682 186.85 43.3028 186.85 44.2108C186.85 45.1162 187.586 45.8508 188.491 45.8508C189.399 45.8508 190.134 45.1162 190.134 44.2108Z" fill="#3A8043"/>
<path d="M213.417 44.2108C213.417 43.3028 212.682 42.5682 211.775 42.5682C210.867 42.5682 210.133 43.3028 210.133 44.2108C210.133 45.1162 210.867 45.8508 211.775 45.8508C212.682 45.8508 213.417 45.1162 213.417 44.2108Z" fill="#3A8043"/>
<path d="M120.283 65.4921C120.283 64.5868 119.548 63.8508 118.642 63.8508C117.735 63.8508 117 64.5868 117 65.4921C117 66.3988 117.735 67.1348 118.642 67.1348C119.548 67.1348 120.283 66.3988 120.283 65.4921Z" fill="#3A8043"/>
<path d="M143.567 65.4921C143.567 64.5868 142.831 63.8508 141.924 63.8508C141.018 63.8508 140.283 64.5868 140.283 65.4921C140.283 66.3988 141.018 67.1348 141.924 67.1348C142.831 67.1348 143.567 66.3988 143.567 65.4921Z" fill="#3A8043"/>
<path d="M166.849 65.4921C166.849 64.5868 166.114 63.8508 165.208 63.8508C164.301 63.8508 163.566 64.5868 163.566 65.4921C163.566 66.3988 164.301 67.1348 165.208 67.1348C166.114 67.1348 166.849 66.3988 166.849 65.4921Z" fill="#3A8043"/>
<path d="M190.134 65.4921C190.134 64.5868 189.399 63.8508 188.491 63.8508C187.586 63.8508 186.85 64.5868 186.85 65.4921C186.85 66.3988 187.586 67.1348 188.491 67.1348C189.399 67.1348 190.134 66.3988 190.134 65.4921Z" fill="#3A8043"/>
<path d="M213.417 65.4921C213.417 64.5868 212.682 63.8508 211.775 63.8508C210.867 63.8508 210.133 64.5868 210.133 65.4921C210.133 66.3988 210.867 67.1348 211.775 67.1348C212.682 67.1348 213.417 66.3988 213.417 65.4921Z" fill="#3A8043"/>
<path d="M3.28333 1.64152C3.28333 0.734854 2.54801 0.000179291 1.64174 0.000179291C0.73494 0.000179291 0 0.734854 0 1.64152C0 2.54819 0.73494 3.28418 1.64174 3.28418C2.54801 3.28418 3.28333 2.54819 3.28333 1.64152Z" fill="#3A8043"/>
<path d="M26.5665 1.64152C26.5665 0.734854 25.8312 0.000179291 24.9244 0.000179291C24.0181 0.000179291 23.2832 0.734854 23.2832 1.64152C23.2832 2.54819 24.0181 3.28418 24.9244 3.28418C25.8312 3.28418 26.5665 2.54819 26.5665 1.64152Z" fill="#3A8043"/>
<path d="M49.8492 1.64152C49.8492 0.734854 49.1144 0.000179291 48.2081 0.000179291C47.3013 0.000179291 46.5664 0.734854 46.5664 1.64152C46.5664 2.54819 47.3013 3.28418 48.2081 3.28418C49.1144 3.28418 49.8492 2.54819 49.8492 1.64152Z" fill="#3A8043"/>
<path d="M73.1336 1.64152C73.1336 0.734854 72.3989 0.000179291 71.4909 0.000179291C70.5856 0.000179291 69.8496 0.734854 69.8496 1.64152C69.8496 2.54819 70.5856 3.28418 71.4909 3.28418C72.3989 3.28418 73.1336 2.54819 73.1336 1.64152Z" fill="#3A8043"/>
<path d="M96.4168 1.64152C96.4168 0.734854 95.6822 0.000179291 94.7755 0.000179291C93.8675 0.000179291 93.1328 0.734854 93.1328 1.64152C93.1328 2.54819 93.8675 3.28418 94.7755 3.28418C95.6822 3.28418 96.4168 2.54819 96.4168 1.64152Z" fill="#3A8043"/>
<path d="M3.28333 22.9268C3.28333 22.0201 2.54801 21.2841 1.64174 21.2841C0.73494 21.2841 0 22.0201 0 22.9268C0 23.8348 0.73494 24.5681 1.64174 24.5681C2.54801 24.5681 3.28333 23.8348 3.28333 22.9268Z" fill="#3A8043"/>
<path d="M26.5665 22.9268C26.5665 22.0201 25.8312 21.2841 24.9244 21.2841C24.0181 21.2841 23.2832 22.0201 23.2832 22.9268C23.2832 23.8348 24.0181 24.5681 24.9244 24.5681C25.8312 24.5681 26.5665 23.8348 26.5665 22.9268Z" fill="#3A8043"/>
<path d="M49.8492 22.9268C49.8492 22.0201 49.1144 21.2841 48.2081 21.2841C47.3013 21.2841 46.5664 22.0201 46.5664 22.9268C46.5664 23.8348 47.3013 24.5681 48.2081 24.5681C49.1144 24.5681 49.8492 23.8348 49.8492 22.9268Z" fill="#3A8043"/>
<path d="M73.1336 22.9268C73.1336 22.0201 72.3989 21.2841 71.4909 21.2841C70.5856 21.2841 69.8496 22.0201 69.8496 22.9268C69.8496 23.8348 70.5856 24.5681 71.4909 24.5681C72.3989 24.5681 73.1336 23.8348 73.1336 22.9268Z" fill="#3A8043"/>
<path d="M96.4168 22.9268C96.4168 22.0201 95.6822 21.2841 94.7755 21.2841C93.8675 21.2841 93.1328 22.0201 93.1328 22.9268C93.1328 23.8348 93.8675 24.5681 94.7755 24.5681C95.6822 24.5681 96.4168 23.8348 96.4168 22.9268Z" fill="#3A8043"/>
<path d="M3.28333 44.2108C3.28333 43.3028 2.54801 42.5682 1.64174 42.5682C0.73494 42.5682 0 43.3028 0 44.2108C0 45.1162 0.73494 45.8508 1.64174 45.8508C2.54801 45.8508 3.28333 45.1162 3.28333 44.2108Z" fill="#3A8043"/>
<path d="M26.5665 44.2108C26.5665 43.3028 25.8312 42.5682 24.9244 42.5682C24.0181 42.5682 23.2832 43.3028 23.2832 44.2108C23.2832 45.1162 24.0181 45.8508 24.9244 45.8508C25.8312 45.8508 26.5665 45.1162 26.5665 44.2108Z" fill="#3A8043"/>
<path d="M49.8492 44.2108C49.8492 43.3028 49.1144 42.5682 48.2081 42.5682C47.3013 42.5682 46.5664 43.3028 46.5664 44.2108C46.5664 45.1162 47.3013 45.8508 48.2081 45.8508C49.1144 45.8508 49.8492 45.1162 49.8492 44.2108Z" fill="#3A8043"/>
<path d="M73.1336 44.2108C73.1336 43.3028 72.3989 42.5682 71.4909 42.5682C70.5856 42.5682 69.8496 43.3028 69.8496 44.2108C69.8496 45.1162 70.5856 45.8508 71.4909 45.8508C72.3989 45.8508 73.1336 45.1162 73.1336 44.2108Z" fill="#3A8043"/>
<path d="M96.4168 44.2108C96.4168 43.3028 95.6822 42.5682 94.7755 42.5682C93.8675 42.5682 93.1328 43.3028 93.1328 44.2108C93.1328 45.1162 93.8675 45.8508 94.7755 45.8508C95.6822 45.8508 96.4168 45.1162 96.4168 44.2108Z" fill="#3A8043"/>
<path d="M3.28333 65.4921C3.28333 64.5868 2.54801 63.8508 1.64174 63.8508C0.73494 63.8508 0 64.5868 0 65.4921C0 66.3988 0.73494 67.1348 1.64174 67.1348C2.54801 67.1348 3.28333 66.3988 3.28333 65.4921Z" fill="#3A8043"/>
<path d="M26.5665 65.4921C26.5665 64.5868 25.8312 63.8508 24.9244 63.8508C24.0181 63.8508 23.2832 64.5868 23.2832 65.4921C23.2832 66.3988 24.0181 67.1348 24.9244 67.1348C25.8312 67.1348 26.5665 66.3988 26.5665 65.4921Z" fill="#3A8043"/>
<path d="M49.8492 65.4921C49.8492 64.5868 49.1144 63.8508 48.2081 63.8508C47.3013 63.8508 46.5664 64.5868 46.5664 65.4921C46.5664 66.3988 47.3013 67.1348 48.2081 67.1348C49.1144 67.1348 49.8492 66.3988 49.8492 65.4921Z" fill="#3A8043"/>
<path d="M73.1336 65.4921C73.1336 64.5868 72.3989 63.8508 71.4909 63.8508C70.5856 63.8508 69.8496 64.5868 69.8496 65.4921C69.8496 66.3988 70.5856 67.1348 71.4909 67.1348C72.3989 67.1348 73.1336 66.3988 73.1336 65.4921Z" fill="#3A8043"/>
<path d="M96.4168 65.4921C96.4168 64.5868 95.6822 63.8508 94.7755 63.8508C93.8675 63.8508 93.1328 64.5868 93.1328 65.4921C93.1328 66.3988 93.8675 67.1348 94.7755 67.1348C95.6822 67.1348 96.4168 66.3988 96.4168 65.4921Z" fill="#3A8043"/>
</svg>
