<svg width="68" height="195" viewBox="0 0 68 195" fill="none" xmlns="http://www.w3.org/2000/svg">
<path d="M3.28333 107.642C3.28333 106.735 2.54801 106 1.64174 106C0.73494 106 0 106.735 0 107.642C0 108.548 0.73494 109.284 1.64174 109.284C2.54801 109.284 3.28333 108.548 3.28333 107.642Z" fill="#3A8043"/>
<path d="M26.5665 107.642C26.5665 106.735 25.8312 106 24.9244 106C24.0181 106 23.2832 106.735 23.2832 107.642C23.2832 108.548 24.0181 109.284 24.9244 109.284C25.8312 109.284 26.5665 108.548 26.5665 107.642Z" fill="#3A8043"/>
<path d="M49.8492 107.642C49.8492 106.735 49.1144 106 48.2081 106C47.3013 106 46.5664 106.735 46.5664 107.642C46.5664 108.548 47.3013 109.284 48.2081 109.284C49.1144 109.284 49.8492 108.548 49.8492 107.642Z" fill="#3A8043"/>
<path d="M3.28333 128.927C3.28333 128.02 2.54801 127.284 1.64174 127.284C0.73494 127.284 0 128.02 0 128.927C0 129.835 0.73494 130.568 1.64174 130.568C2.54801 130.568 3.28333 129.835 3.28333 128.927Z" fill="#3A8043"/>
<path d="M26.5665 128.927C26.5665 128.02 25.8312 127.284 24.9244 127.284C24.0181 127.284 23.2832 128.02 23.2832 128.927C23.2832 129.835 24.0181 130.568 24.9244 130.568C25.8312 130.568 26.5665 129.835 26.5665 128.927Z" fill="#3A8043"/>
<path d="M49.8492 128.927C49.8492 128.02 49.1144 127.284 48.2081 127.284C47.3013 127.284 46.5664 128.02 46.5664 128.927C46.5664 129.835 47.3013 130.568 48.2081 130.568C49.1144 130.568 49.8492 129.835 49.8492 128.927Z" fill="#3A8043"/>
<path d="M3.28333 150.211C3.28333 149.303 2.54801 148.568 1.64174 148.568C0.73494 148.568 0 149.303 0 150.211C0 151.116 0.73494 151.851 1.64174 151.851C2.54801 151.851 3.28333 151.116 3.28333 150.211Z" fill="#3A8043"/>
<path d="M26.5665 150.211C26.5665 149.303 25.8312 148.568 24.9244 148.568C24.0181 148.568 23.2832 149.303 23.2832 150.211C23.2832 151.116 24.0181 151.851 24.9244 151.851C25.8312 151.851 26.5665 151.116 26.5665 150.211Z" fill="#3A8043"/>
<path d="M49.8492 150.211C49.8492 149.303 49.1144 148.568 48.2081 148.568C47.3013 148.568 46.5664 149.303 46.5664 150.211C46.5664 151.116 47.3013 151.851 48.2081 151.851C49.1144 151.851 49.8492 151.116 49.8492 150.211Z" fill="#3A8043"/>
<path d="M3.28333 171.492C3.28333 170.587 2.54801 169.851 1.64174 169.851C0.73494 169.851 0 170.587 0 171.492C0 172.399 0.73494 173.135 1.64174 173.135C2.54801 173.135 3.28333 172.399 3.28333 171.492Z" fill="#3A8043"/>
<path d="M26.5665 171.492C26.5665 170.587 25.8312 169.851 24.9244 169.851C24.0181 169.851 23.2832 170.587 23.2832 171.492C23.2832 172.399 24.0181 173.135 24.9244 173.135C25.8312 173.135 26.5665 172.399 26.5665 171.492Z" fill="#3A8043"/>
<path d="M49.8492 171.492C49.8492 170.587 49.1144 169.851 48.2081 169.851C47.3013 169.851 46.5664 170.587 46.5664 171.492C46.5664 172.399 47.3013 173.135 48.2081 173.135C49.1144 173.135 49.8492 172.399 49.8492 171.492Z" fill="#3A8043"/>
<path d="M3.28333 192.775C3.28333 191.87 2.54801 191.135 1.64174 191.135C0.73494 191.135 0 191.87 0 192.775C0 193.683 0.73494 194.417 1.64174 194.417C2.54801 194.417 3.28333 193.683 3.28333 192.775Z" fill="#3A8043"/>
<path d="M26.5665 192.775C26.5665 191.87 25.8312 191.135 24.9244 191.135C24.0181 191.135 23.2832 191.87 23.2832 192.775C23.2832 193.683 24.0181 194.417 24.9244 194.417C25.8312 194.417 26.5665 193.683 26.5665 192.775Z" fill="#3A8043"/>
<path d="M49.8492 192.775C49.8492 191.87 49.1144 191.135 48.2081 191.135C47.3013 191.135 46.5664 191.87 46.5664 192.775C46.5664 193.683 47.3013 194.417 48.2081 194.417C49.1144 194.417 49.8492 193.683 49.8492 192.775Z" fill="#3A8043"/>
<path d="M3.28333 1.64152C3.28333 0.734854 2.54801 0.000179291 1.64174 0.000179291C0.73494 0.000179291 0 0.734854 0 1.64152C0 2.54819 0.73494 3.28418 1.64174 3.28418C2.54801 3.28418 3.28333 2.54819 3.28333 1.64152Z" fill="#3A8043"/>
<path d="M26.5665 1.64152C26.5665 0.734854 25.8312 0.000179291 24.9244 0.000179291C24.0181 0.000179291 23.2832 0.734854 23.2832 1.64152C23.2832 2.54819 24.0181 3.28418 24.9244 3.28418C25.8312 3.28418 26.5665 2.54819 26.5665 1.64152Z" fill="#3A8043"/>
<path d="M49.8492 1.64152C49.8492 0.734854 49.1144 0.000179291 48.2081 0.000179291C47.3013 0.000179291 46.5664 0.734854 46.5664 1.64152C46.5664 2.54819 47.3013 3.28418 48.2081 3.28418C49.1144 3.28418 49.8492 2.54819 49.8492 1.64152Z" fill="#3A8043"/>
<path d="M3.28333 22.9268C3.28333 22.0201 2.54801 21.2841 1.64174 21.2841C0.73494 21.2841 0 22.0201 0 22.9268C0 23.8348 0.73494 24.5681 1.64174 24.5681C2.54801 24.5681 3.28333 23.8348 3.28333 22.9268Z" fill="#3A8043"/>
<path d="M26.5665 22.9268C26.5665 22.0201 25.8312 21.2841 24.9244 21.2841C24.0181 21.2841 23.2832 22.0201 23.2832 22.9268C23.2832 23.8348 24.0181 24.5681 24.9244 24.5681C25.8312 24.5681 26.5665 23.8348 26.5665 22.9268Z" fill="#3A8043"/>
<path d="M49.8492 22.9268C49.8492 22.0201 49.1144 21.2841 48.2081 21.2841C47.3013 21.2841 46.5664 22.0201 46.5664 22.9268C46.5664 23.8348 47.3013 24.5681 48.2081 24.5681C49.1144 24.5681 49.8492 23.8348 49.8492 22.9268Z" fill="#3A8043"/>
<path d="M3.28333 44.2108C3.28333 43.3028 2.54801 42.5682 1.64174 42.5682C0.73494 42.5682 0 43.3028 0 44.2108C0 45.1162 0.73494 45.8508 1.64174 45.8508C2.54801 45.8508 3.28333 45.1162 3.28333 44.2108Z" fill="#3A8043"/>
<path d="M26.5665 44.2108C26.5665 43.3028 25.8312 42.5682 24.9244 42.5682C24.0181 42.5682 23.2832 43.3028 23.2832 44.2108C23.2832 45.1162 24.0181 45.8508 24.9244 45.8508C25.8312 45.8508 26.5665 45.1162 26.5665 44.2108Z" fill="#3A8043"/>
<path d="M49.8492 44.2108C49.8492 43.3028 49.1144 42.5682 48.2081 42.5682C47.3013 42.5682 46.5664 43.3028 46.5664 44.2108C46.5664 45.1162 47.3013 45.8508 48.2081 45.8508C49.1144 45.8508 49.8492 45.1162 49.8492 44.2108Z" fill="#3A8043"/>
<path d="M3.28333 65.4921C3.28333 64.5868 2.54801 63.8508 1.64174 63.8508C0.73494 63.8508 0 64.5868 0 65.4921C0 66.3988 0.73494 67.1348 1.64174 67.1348C2.54801 67.1348 3.28333 66.3988 3.28333 65.4921Z" fill="#3A8043"/>
<path d="M26.5665 65.4921C26.5665 64.5868 25.8312 63.8508 24.9244 63.8508C24.0181 63.8508 23.2832 64.5868 23.2832 65.4921C23.2832 66.3988 24.0181 67.1348 24.9244 67.1348C25.8312 67.1348 26.5665 66.3988 26.5665 65.4921Z" fill="#3A8043"/>
<path d="M49.8492 65.4921C49.8492 64.5868 49.1144 63.8508 48.2081 63.8508C47.3013 63.8508 46.5664 64.5868 46.5664 65.4921C46.5664 66.3988 47.3013 67.1348 48.2081 67.1348C49.1144 67.1348 49.8492 66.3988 49.8492 65.4921Z" fill="#3A8043"/>
<path d="M3.28333 86.7748C3.28333 85.8696 2.54801 85.1347 1.64174 85.1347C0.73494 85.1347 0 85.8696 0 86.7748C0 87.6826 0.73494 88.4175 1.64174 88.4175C2.54801 88.4175 3.28333 87.6826 3.28333 86.7748Z" fill="#3A8043"/>
<path d="M26.5665 86.7748C26.5665 85.8696 25.8312 85.1347 24.9244 85.1347C24.0181 85.1347 23.2832 85.8696 23.2832 86.7748C23.2832 87.6826 24.0181 88.4175 24.9244 88.4175C25.8312 88.4175 26.5665 87.6826 26.5665 86.7748Z" fill="#3A8043"/>
<path d="M49.8492 86.7748C49.8492 85.8696 49.1144 85.1347 48.2081 85.1347C47.3013 85.1347 46.5664 85.8696 46.5664 86.7748C46.5664 87.6826 47.3013 88.4175 48.2081 88.4175C49.1144 88.4175 49.8492 87.6826 49.8492 86.7748Z" fill="#3A8043"/>
</svg>
