<svg width="27" height="123" viewBox="0 0 27 123" fill="none" xmlns="http://www.w3.org/2000/svg">
<path d="M0 4.13342V5.72205e-06L26.668 24.4979V28.6324L0 4.13342Z" fill="#3A8043"/>
<path d="M0 17.5711V13.4366L26.668 37.9345V42.069L0 17.5711Z" fill="#3A8043"/>
<path d="M0 31.0088V26.8732L26.668 51.3711V55.5056L0 31.0088Z" fill="#3A8043"/>
<path d="M0 44.4455V40.3109L26.668 64.8089V68.9434L0 44.4455Z" fill="#3A8043"/>
<path d="M0 57.882V53.7487L26.668 78.2455V82.38L0 57.882Z" fill="#3A8043"/>
<path d="M0 71.3198V67.1853L26.668 91.6832V95.8177L0 71.3198Z" fill="#3A8043"/>
<path d="M0 84.7564V80.6219L26.668 105.12V109.254L0 84.7564Z" fill="#3A8043"/>
<path d="M0 98.1941V94.0596L26.668 118.558V122.692L0 98.1941Z" fill="#3A8043"/>
</svg>
