<svg width="100" height="93" viewBox="0 0 100 93" fill="none" xmlns="http://www.w3.org/2000/svg">
<path d="M4.42562 2.62322C4.42562 1.40136 3.43447 0.411294 2.21291 0.411294C0.990629 0.411294 0 1.40136 0 2.62322C0 3.84507 0.990629 4.83691 2.21291 4.83691C3.43447 4.83691 4.42562 3.84507 4.42562 2.62322Z" fill="#3A8043"/>
<path d="M28.3192 2.62322C28.3192 1.40136 27.328 0.411294 26.1057 0.411294C24.8842 0.411294 23.8936 1.40136 23.8936 2.62322C23.8936 3.84507 24.8842 4.83691 26.1057 4.83691C27.328 4.83691 28.3192 3.84507 28.3192 2.62322Z" fill="#3A8043"/>
<path d="M52.2118 2.62322C52.2118 1.40136 51.2212 0.411294 49.9994 0.411294C48.7769 0.411294 47.7861 1.40136 47.7861 2.62322C47.7861 3.84507 48.7769 4.83691 49.9994 4.83691C51.2212 4.83691 52.2118 3.84507 52.2118 2.62322Z" fill="#3A8043"/>
<path d="M76.1053 2.62322C76.1053 1.40136 75.1152 0.411294 73.8916 0.411294C72.6715 0.411294 71.6797 1.40136 71.6797 2.62322C71.6797 3.84507 72.6715 4.83691 73.8916 4.83691C75.1152 4.83691 76.1053 3.84507 76.1053 2.62322Z" fill="#3A8043"/>
<path d="M99.9998 2.62322C99.9998 1.40136 99.0098 0.411294 97.7879 0.411294C96.5643 0.411294 95.5742 1.40136 95.5742 2.62322C95.5742 3.84507 96.5643 4.83691 97.7879 4.83691C99.0098 4.83691 99.9998 3.84507 99.9998 2.62322Z" fill="#3A8043"/>
<path d="M4.42562 24.6646C4.42562 23.4427 3.43447 22.4508 2.21291 22.4508C0.990629 22.4508 0 23.4427 0 24.6646C0 25.8882 0.990629 26.8765 2.21291 26.8765C3.43447 26.8765 4.42562 25.8882 4.42562 24.6646Z" fill="#3A8043"/>
<path d="M28.3192 24.6647C28.3192 23.4428 27.328 22.451 26.1057 22.451C24.8842 22.451 23.8936 23.4428 23.8936 24.6647C23.8936 25.8883 24.8842 26.8766 26.1057 26.8766C27.328 26.8766 28.3192 25.8883 28.3192 24.6647Z" fill="#3A8043"/>
<path d="M52.2118 24.6647C52.2118 23.4428 51.2212 22.451 49.9994 22.451C48.7769 22.451 47.7861 23.4428 47.7861 24.6647C47.7861 25.8883 48.7769 26.8766 49.9994 26.8766C51.2212 26.8766 52.2118 25.8883 52.2118 24.6647Z" fill="#3A8043"/>
<path d="M76.1053 24.6647C76.1053 23.4428 75.1152 22.451 73.8916 22.451C72.6715 22.451 71.6797 23.4428 71.6797 24.6647C71.6797 25.8883 72.6715 26.8766 73.8916 26.8766C75.1152 26.8766 76.1053 25.8883 76.1053 24.6647Z" fill="#3A8043"/>
<path d="M99.9998 24.6647C99.9998 23.4428 99.0098 22.451 97.7879 22.451C96.5643 22.451 95.5742 23.4428 95.5742 24.6647C95.5742 25.8883 96.5643 26.8766 97.7879 26.8766C99.0098 26.8766 99.9998 25.8883 99.9998 24.6647Z" fill="#3A8043"/>
<path d="M4.42562 46.7063C4.42562 45.4822 3.43447 44.4917 2.21291 44.4917C0.990629 44.4917 0 45.4822 0 46.7063C0 47.9269 0.990629 48.9174 2.21291 48.9174C3.43447 48.9174 4.42562 47.9269 4.42562 46.7063Z" fill="#3A8043"/>
<path d="M28.3192 46.7063C28.3192 45.4822 27.328 44.4917 26.1057 44.4917C24.8842 44.4917 23.8936 45.4822 23.8936 46.7063C23.8936 47.9269 24.8842 48.9174 26.1057 48.9174C27.328 48.9174 28.3192 47.9269 28.3192 46.7063Z" fill="#3A8043"/>
<path d="M52.2118 46.7063C52.2118 45.4822 51.2212 44.4917 49.9994 44.4917C48.7769 44.4917 47.7861 45.4822 47.7861 46.7063C47.7861 47.9269 48.7769 48.9174 49.9994 48.9174C51.2212 48.9174 52.2118 47.9269 52.2118 46.7063Z" fill="#3A8043"/>
<path d="M76.1053 46.7063C76.1053 45.4822 75.1152 44.4917 73.8916 44.4917C72.6715 44.4917 71.6797 45.4822 71.6797 46.7063C71.6797 47.9269 72.6715 48.9174 73.8916 48.9174C75.1152 48.9174 76.1053 47.9269 76.1053 46.7063Z" fill="#3A8043"/>
<path d="M99.9998 46.7063C99.9998 45.4822 99.0098 44.4917 97.7879 44.4917C96.5643 44.4917 95.5742 45.4822 95.5742 46.7063C95.5742 47.9269 96.5643 48.9174 97.7879 48.9174C99.0098 48.9174 99.9998 47.9269 99.9998 46.7063Z" fill="#3A8043"/>
<path d="M4.42562 68.7455C4.42562 67.5255 3.43447 66.5336 2.21291 66.5336C0.990629 66.5336 0 67.5255 0 68.7455C0 69.9674 0.990629 70.9592 2.21291 70.9592C3.43447 70.9592 4.42562 69.9674 4.42562 68.7455Z" fill="#3A8043"/>
<path d="M28.3192 68.7455C28.3192 67.5255 27.328 66.5336 26.1057 66.5336C24.8842 66.5336 23.8936 67.5255 23.8936 68.7455C23.8936 69.9674 24.8842 70.9592 26.1057 70.9592C27.328 70.9592 28.3192 69.9674 28.3192 68.7455Z" fill="#3A8043"/>
<path d="M52.2118 68.7455C52.2118 67.5255 51.2212 66.5336 49.9994 66.5336C48.7769 66.5336 47.7861 67.5255 47.7861 68.7455C47.7861 69.9674 48.7769 70.9592 49.9994 70.9592C51.2212 70.9592 52.2118 69.9674 52.2118 68.7455Z" fill="#3A8043"/>
<path d="M76.1053 68.7455C76.1053 67.5255 75.1152 66.5336 73.8916 66.5336C72.6715 66.5336 71.6797 67.5255 71.6797 68.7455C71.6797 69.9674 72.6715 70.9592 73.8916 70.9592C75.1152 70.9592 76.1053 69.9674 76.1053 68.7455Z" fill="#3A8043"/>
<path d="M99.9998 68.7455C99.9998 67.5255 99.0098 66.5336 97.7879 66.5336C96.5643 66.5336 95.5742 67.5255 95.5742 68.7455C95.5742 69.9674 96.5643 70.9592 97.7879 70.9592C99.0098 70.9592 99.9998 69.9674 99.9998 68.7455Z" fill="#3A8043"/>
<path d="M4.42562 90.7855C4.42562 89.5652 3.43447 88.5744 2.21291 88.5744C0.990629 88.5744 0 89.5652 0 90.7855C0 92.0092 0.990629 93 2.21291 93C3.43447 93 4.42562 92.0092 4.42562 90.7855Z" fill="#3A8043"/>
<path d="M28.3192 90.7855C28.3192 89.5652 27.328 88.5744 26.1057 88.5744C24.8842 88.5744 23.8936 89.5652 23.8936 90.7855C23.8936 92.0092 24.8842 93 26.1057 93C27.328 93 28.3192 92.0092 28.3192 90.7855Z" fill="#3A8043"/>
<path d="M52.2118 90.7855C52.2118 89.5652 51.2212 88.5744 49.9994 88.5744C48.7769 88.5744 47.7861 89.5652 47.7861 90.7855C47.7861 92.0092 48.7769 93 49.9994 93C51.2212 93 52.2118 92.0092 52.2118 90.7855Z" fill="#3A8043"/>
<path d="M76.1053 90.7855C76.1053 89.5652 75.1152 88.5744 73.8916 88.5744C72.6715 88.5744 71.6797 89.5652 71.6797 90.7855C71.6797 92.0092 72.6715 93 73.8916 93C75.1152 93 76.1053 92.0092 76.1053 90.7855Z" fill="#3A8043"/>
<path d="M99.9998 90.7855C99.9998 89.5652 99.0098 88.5744 97.7879 88.5744C96.5643 88.5744 95.5742 89.5652 95.5742 90.7855C95.5742 92.0092 96.5643 93 97.7879 93C99.0098 93 99.9998 92.0092 99.9998 90.7855Z" fill="#3A8043"/>
</svg>
